{
	"asset":{
		"generator":"Khronos glTF Blender I/O v4.4.56",
		"version":"2.0"
	},
	"scene":0,
	"scenes":[
		{
			"name":"Scene",
			"nodes":[
				0,
				1,
				2,
				3,
				4,
				5,
				6,
				7,
				8,
				9,
				10
			]
		}
	],
	"nodes":[
		{
			"mesh":0,
			"name":"Plane"
		},
		{
			"mesh":1,
			"name":"Layer0_001"
		},
		{
			"mesh":2,
			"name":"Plane.001"
		},
		{
			"mesh":3,
			"name":"Plane.002"
		},
		{
			"mesh":4,
			"name":"Plane.003"
		},
		{
			"mesh":5,
			"name":"Plane.004"
		},
		{
			"mesh":6,
			"name":"Plane.005"
		},
		{
			"mesh":7,
			"name":"Plane.006"
		},
		{
			"mesh":8,
			"name":"Cube"
		},
		{
			"mesh":9,
			"name":"Cube.001"
		},
		{
			"mesh":10,
			"name":"Cube.002"
		}
	],
	"meshes":[
		{
			"name":"Plane",
			"primitives":[
				{
					"attributes":{
						"POSITION":0,
						"NORMAL":1,
						"TEXCOORD_0":2
					},
					"indices":3
				}
			]
		},
		{
			"name":"Mesh",
			"primitives":[
				{
					"attributes":{
						"POSITION":4,
						"NORMAL":5,
						"TEXCOORD_0":6,
						"TEXCOORD_1":7
					},
					"indices":8
				}
			]
		},
		{
			"name":"Plane.001",
			"primitives":[
				{
					"attributes":{
						"POSITION":9,
						"NORMAL":10,
						"TEXCOORD_0":11
					},
					"indices":3
				}
			]
		},
		{
			"name":"Plane.002",
			"primitives":[
				{
					"attributes":{
						"POSITION":12,
						"NORMAL":13,
						"TEXCOORD_0":14
					},
					"indices":15
				}
			]
		},
		{
			"name":"Plane.003",
			"primitives":[
				{
					"attributes":{
						"POSITION":16,
						"NORMAL":17,
						"TEXCOORD_0":18
					},
					"indices":3
				}
			]
		},
		{
			"name":"Plane.004",
			"primitives":[
				{
					"attributes":{
						"POSITION":19,
						"NORMAL":20,
						"TEXCOORD_0":21
					},
					"indices":3
				}
			]
		},
		{
			"name":"Plane.005",
			"primitives":[
				{
					"attributes":{
						"POSITION":22,
						"NORMAL":23,
						"TEXCOORD_0":24
					},
					"indices":25
				}
			]
		},
		{
			"name":"Plane.006",
			"primitives":[
				{
					"attributes":{
						"POSITION":26,
						"NORMAL":27,
						"TEXCOORD_0":28
					},
					"indices":15
				}
			]
		},
		{
			"name":"Cube.001",
			"primitives":[
				{
					"attributes":{
						"POSITION":29,
						"NORMAL":30,
						"TEXCOORD_0":31
					},
					"indices":32
				}
			]
		},
		{
			"name":"Cube.002",
			"primitives":[
				{
					"attributes":{
						"POSITION":33,
						"NORMAL":34,
						"TEXCOORD_0":35
					},
					"indices":32
				}
			]
		},
		{
			"name":"Cube.003",
			"primitives":[
				{
					"attributes":{
						"POSITION":36,
						"NORMAL":37,
						"TEXCOORD_0":38
					},
					"indices":32
				}
			]
		}
	],
	"accessors":[
		{
			"bufferView":0,
			"componentType":5126,
			"count":4,
			"max":[
				20,
				0,
				20
			],
			"min":[
				-20,
				0,
				-20
			],
			"type":"VEC3"
		},
		{
			"bufferView":1,
			"componentType":5126,
			"count":4,
			"type":"VEC3"
		},
		{
			"bufferView":2,
			"componentType":5126,
			"count":4,
			"type":"VEC2"
		},
		{
			"bufferView":3,
			"componentType":5123,
			"count":6,
			"type":"SCALAR"
		},
		{
			"bufferView":4,
			"componentType":5126,
			"count":150,
			"max":[
				19.998964309692383,
				4.854575157165527,
				3.274218797683716
			],
			"min":[
				8.113597869873047,
				0,
				-3.274218797683716
			],
			"type":"VEC3"
		},
		{
			"bufferView":5,
			"componentType":5126,
			"count":150,
			"type":"VEC3"
		},
		{
			"bufferView":6,
			"componentType":5126,
			"count":150,
			"type":"VEC2"
		},
		{
			"bufferView":7,
			"componentType":5126,
			"count":150,
			"type":"VEC2"
		},
		{
			"bufferView":8,
			"componentType":5123,
			"count":288,
			"type":"SCALAR"
		},
		{
			"bufferView":9,
			"componentType":5126,
			"count":4,
			"max":[
				20,
				10,
				20
			],
			"min":[
				20,
				0,
				-20
			],
			"type":"VEC3"
		},
		{
			"bufferView":10,
			"componentType":5126,
			"count":4,
			"type":"VEC3"
		},
		{
			"bufferView":11,
			"componentType":5126,
			"count":4,
			"type":"VEC2"
		},
		{
			"bufferView":12,
			"componentType":5126,
			"count":24,
			"max":[
				19.95425033569336,
				4.84896993637085,
				-3.2647838592529297
			],
			"min":[
				8.134246826171875,
				4.84896993637085,
				-6.901147842407227
			],
			"type":"VEC3"
		},
		{
			"bufferView":13,
			"componentType":5126,
			"count":24,
			"type":"VEC3"
		},
		{
			"bufferView":14,
			"componentType":5126,
			"count":24,
			"type":"VEC2"
		},
		{
			"bufferView":15,
			"componentType":5123,
			"count":66,
			"type":"SCALAR"
		},
		{
			"bufferView":16,
			"componentType":5126,
			"count":4,
			"max":[
				20,
				10.000000953674316,
				-20
			],
			"min":[
				-20,
				-9.5367431640625e-07,
				-20
			],
			"type":"VEC3"
		},
		{
			"bufferView":17,
			"componentType":5126,
			"count":4,
			"type":"VEC3"
		},
		{
			"bufferView":18,
			"componentType":5126,
			"count":4,
			"type":"VEC2"
		},
		{
			"bufferView":19,
			"componentType":5126,
			"count":4,
			"max":[
				20,
				4.868969917297363,
				-9.999999046325684
			],
			"min":[
				-20,
				4.868969917297363,
				-20
			],
			"type":"VEC3"
		},
		{
			"bufferView":20,
			"componentType":5126,
			"count":4,
			"type":"VEC3"
		},
		{
			"bufferView":21,
			"componentType":5126,
			"count":4,
			"type":"VEC2"
		},
		{
			"bufferView":22,
			"componentType":5126,
			"count":56,
			"max":[
				20,
				4.934485912322998,
				-10.060657501220703
			],
			"min":[
				-20,
				-0.06551599502563477,
				-10.060659408569336
			],
			"type":"VEC3"
		},
		{
			"bufferView":23,
			"componentType":5126,
			"count":56,
			"type":"VEC3"
		},
		{
			"bufferView":24,
			"componentType":5126,
			"count":56,
			"type":"VEC2"
		},
		{
			"bufferView":25,
			"componentType":5123,
			"count":210,
			"type":"SCALAR"
		},
		{
			"bufferView":26,
			"componentType":5126,
			"count":24,
			"max":[
				19.95425033569336,
				4.84896993637085,
				-6.757635116577148
			],
			"min":[
				8.134246826171875,
				4.84896993637085,
				-10.393999099731445
			],
			"type":"VEC3"
		},
		{
			"bufferView":27,
			"componentType":5126,
			"count":24,
			"type":"VEC3"
		},
		{
			"bufferView":28,
			"componentType":5126,
			"count":24,
			"type":"VEC2"
		},
		{
			"bufferView":29,
			"componentType":5126,
			"count":24,
			"max":[
				-13.147180557250977,
				2.055572032928467,
				1
			],
			"min":[
				-15.147180557250977,
				0.05557215213775635,
				-1
			],
			"type":"VEC3"
		},
		{
			"bufferView":30,
			"componentType":5126,
			"count":24,
			"type":"VEC3"
		},
		{
			"bufferView":31,
			"componentType":5126,
			"count":24,
			"type":"VEC2"
		},
		{
			"bufferView":32,
			"componentType":5123,
			"count":36,
			"type":"SCALAR"
		},
		{
			"bufferView":33,
			"componentType":5126,
			"count":24,
			"max":[
				-13.147180557250977,
				2.055572032928467,
				4.337366580963135
			],
			"min":[
				-15.147180557250977,
				0.05557215213775635,
				2.3373665809631348
			],
			"type":"VEC3"
		},
		{
			"bufferView":34,
			"componentType":5126,
			"count":24,
			"type":"VEC3"
		},
		{
			"bufferView":35,
			"componentType":5126,
			"count":24,
			"type":"VEC2"
		},
		{
			"bufferView":36,
			"componentType":5126,
			"count":24,
			"max":[
				-13.147180557250977,
				5.122154712677002,
				2.6132075786590576
			],
			"min":[
				-15.147180557250977,
				3.122154712677002,
				0.6132075786590576
			],
			"type":"VEC3"
		},
		{
			"bufferView":37,
			"componentType":5126,
			"count":24,
			"type":"VEC3"
		},
		{
			"bufferView":38,
			"componentType":5126,
			"count":24,
			"type":"VEC2"
		}
	],
	"bufferViews":[
		{
			"buffer":0,
			"byteLength":48,
			"byteOffset":0,
			"target":34962
		},
		{
			"buffer":0,
			"byteLength":48,
			"byteOffset":48,
			"target":34962
		},
		{
			"buffer":0,
			"byteLength":32,
			"byteOffset":96,
			"target":34962
		},
		{
			"buffer":0,
			"byteLength":12,
			"byteOffset":128,
			"target":34963
		},
		{
			"buffer":0,
			"byteLength":1800,
			"byteOffset":140,
			"target":34962
		},
		{
			"buffer":0,
			"byteLength":1800,
			"byteOffset":1940,
			"target":34962
		},
		{
			"buffer":0,
			"byteLength":1200,
			"byteOffset":3740,
			"target":34962
		},
		{
			"buffer":0,
			"byteLength":1200,
			"byteOffset":4940,
			"target":34962
		},
		{
			"buffer":0,
			"byteLength":576,
			"byteOffset":6140,
			"target":34963
		},
		{
			"buffer":0,
			"byteLength":48,
			"byteOffset":6716,
			"target":34962
		},
		{
			"buffer":0,
			"byteLength":48,
			"byteOffset":6764,
			"target":34962
		},
		{
			"buffer":0,
			"byteLength":32,
			"byteOffset":6812,
			"target":34962
		},
		{
			"buffer":0,
			"byteLength":288,
			"byteOffset":6844,
			"target":34962
		},
		{
			"buffer":0,
			"byteLength":288,
			"byteOffset":7132,
			"target":34962
		},
		{
			"buffer":0,
			"byteLength":192,
			"byteOffset":7420,
			"target":34962
		},
		{
			"buffer":0,
			"byteLength":132,
			"byteOffset":7612,
			"target":34963
		},
		{
			"buffer":0,
			"byteLength":48,
			"byteOffset":7744,
			"target":34962
		},
		{
			"buffer":0,
			"byteLength":48,
			"byteOffset":7792,
			"target":34962
		},
		{
			"buffer":0,
			"byteLength":32,
			"byteOffset":7840,
			"target":34962
		},
		{
			"buffer":0,
			"byteLength":48,
			"byteOffset":7872,
			"target":34962
		},
		{
			"buffer":0,
			"byteLength":48,
			"byteOffset":7920,
			"target":34962
		},
		{
			"buffer":0,
			"byteLength":32,
			"byteOffset":7968,
			"target":34962
		},
		{
			"buffer":0,
			"byteLength":672,
			"byteOffset":8000,
			"target":34962
		},
		{
			"buffer":0,
			"byteLength":672,
			"byteOffset":8672,
			"target":34962
		},
		{
			"buffer":0,
			"byteLength":448,
			"byteOffset":9344,
			"target":34962
		},
		{
			"buffer":0,
			"byteLength":420,
			"byteOffset":9792,
			"target":34963
		},
		{
			"buffer":0,
			"byteLength":288,
			"byteOffset":10212,
			"target":34962
		},
		{
			"buffer":0,
			"byteLength":288,
			"byteOffset":10500,
			"target":34962
		},
		{
			"buffer":0,
			"byteLength":192,
			"byteOffset":10788,
			"target":34962
		},
		{
			"buffer":0,
			"byteLength":288,
			"byteOffset":10980,
			"target":34962
		},
		{
			"buffer":0,
			"byteLength":288,
			"byteOffset":11268,
			"target":34962
		},
		{
			"buffer":0,
			"byteLength":192,
			"byteOffset":11556,
			"target":34962
		},
		{
			"buffer":0,
			"byteLength":72,
			"byteOffset":11748,
			"target":34963
		},
		{
			"buffer":0,
			"byteLength":288,
			"byteOffset":11820,
			"target":34962
		},
		{
			"buffer":0,
			"byteLength":288,
			"byteOffset":12108,
			"target":34962
		},
		{
			"buffer":0,
			"byteLength":192,
			"byteOffset":12396,
			"target":34962
		},
		{
			"buffer":0,
			"byteLength":288,
			"byteOffset":12588,
			"target":34962
		},
		{
			"buffer":0,
			"byteLength":288,
			"byteOffset":12876,
			"target":34962
		},
		{
			"buffer":0,
			"byteLength":192,
			"byteOffset":13164,
			"target":34962
		}
	],
	"buffers":[
		{
			"byteLength":13356,
			"uri":"Gym.bin"
		}
	]
}
