{
	"asset":{
		"generator":"Khronos glTF Blender I/O v4.4.56",
		"version":"2.0"
	},
	"scene":0,
	"scenes":[
		{
			"name":"Scene",
			"nodes":[
				0
			]
		}
	],
	"nodes":[
		{
			"mesh":0,
			"name":"Mailbox"
		}
	],
	"materials":[
		{
			"doubleSided":true,
			"name":"mailbox",
			"pbrMetallicRoughness":{
				"baseColorFactor":[
					0.21051587164402008,
					0.3170461654663086,
					0.8000000715255737,
					1
				],
				"metallicFactor":0,
				"roughnessFactor":0.6499999761581421
			}
		},
		{
			"doubleSided":true,
			"name":"sign",
			"pbrMetallicRoughness":{
				"baseColorFactor":[
					0.800000011920929,
					0.800000011920929,
					0.800000011920929,
					1
				],
				"metallicFactor":0,
				"roughnessFactor":0.8999999761581421
			}
		},
		{
			"doubleSided":true,
			"name":"sign_shade2",
			"pbrMetallicRoughness":{
				"baseColorFactor":[
					0.2143077403306961,
					0.25753623247146606,
					0.8000000715255737,
					1
				],
				"metallicFactor":0,
				"roughnessFactor":0.8999999761581421
			}
		}
	],
	"meshes":[
		{
			"name":"Cube.079",
			"primitives":[
				{
					"attributes":{
						"POSITION":0,
						"NORMAL":1,
						"TEXCOORD_0":2
					},
					"indices":3,
					"material":0
				},
				{
					"attributes":{
						"POSITION":4,
						"NORMAL":5,
						"TEXCOORD_0":6
					},
					"indices":7,
					"material":1
				},
				{
					"attributes":{
						"POSITION":8,
						"NORMAL":9,
						"TEXCOORD_0":10
					},
					"indices":11,
					"material":2
				}
			]
		}
	],
	"accessors":[
		{
			"bufferView":0,
			"componentType":5126,
			"count":445,
			"max":[
				0.10994043946266174,
				0.46237125992774963,
				0.10725139081478119
			],
			"min":[
				-0.10760363936424255,
				-0.00022539496421813965,
				-0.11861912906169891
			],
			"type":"VEC3"
		},
		{
			"bufferView":1,
			"componentType":5126,
			"count":445,
			"type":"VEC3"
		},
		{
			"bufferView":2,
			"componentType":5126,
			"count":445,
			"type":"VEC2"
		},
		{
			"bufferView":3,
			"componentType":5123,
			"count":930,
			"type":"SCALAR"
		},
		{
			"bufferView":4,
			"componentType":5126,
			"count":12,
			"max":[
				0.11028503626585007,
				0.30704498291015625,
				0.05104389414191246
			],
			"min":[
				0.11028501391410828,
				0.21130457520484924,
				-0.008296404033899307
			],
			"type":"VEC3"
		},
		{
			"bufferView":5,
			"componentType":5126,
			"count":12,
			"type":"VEC3"
		},
		{
			"bufferView":6,
			"componentType":5126,
			"count":12,
			"type":"VEC2"
		},
		{
			"bufferView":7,
			"componentType":5123,
			"count":30,
			"type":"SCALAR"
		},
		{
			"bufferView":8,
			"componentType":5126,
			"count":8,
			"max":[
				0.11028503626585007,
				0.30211034417152405,
				0.04610925540328026
			],
			"min":[
				0.11028501391410828,
				0.21623921394348145,
				-0.003361763432621956
			],
			"type":"VEC3"
		},
		{
			"bufferView":9,
			"componentType":5126,
			"count":8,
			"type":"VEC3"
		},
		{
			"bufferView":10,
			"componentType":5126,
			"count":8,
			"type":"VEC2"
		},
		{
			"bufferView":11,
			"componentType":5123,
			"count":24,
			"type":"SCALAR"
		}
	],
	"bufferViews":[
		{
			"buffer":0,
			"byteLength":5340,
			"byteOffset":0,
			"target":34962
		},
		{
			"buffer":0,
			"byteLength":5340,
			"byteOffset":5340,
			"target":34962
		},
		{
			"buffer":0,
			"byteLength":3560,
			"byteOffset":10680,
			"target":34962
		},
		{
			"buffer":0,
			"byteLength":1860,
			"byteOffset":14240,
			"target":34963
		},
		{
			"buffer":0,
			"byteLength":144,
			"byteOffset":16100,
			"target":34962
		},
		{
			"buffer":0,
			"byteLength":144,
			"byteOffset":16244,
			"target":34962
		},
		{
			"buffer":0,
			"byteLength":96,
			"byteOffset":16388,
			"target":34962
		},
		{
			"buffer":0,
			"byteLength":60,
			"byteOffset":16484,
			"target":34963
		},
		{
			"buffer":0,
			"byteLength":96,
			"byteOffset":16544,
			"target":34962
		},
		{
			"buffer":0,
			"byteLength":96,
			"byteOffset":16640,
			"target":34962
		},
		{
			"buffer":0,
			"byteLength":64,
			"byteOffset":16736,
			"target":34962
		},
		{
			"buffer":0,
			"byteLength":48,
			"byteOffset":16800,
			"target":34963
		}
	],
	"buffers":[
		{
			"byteLength":16848,
			"uri":"Mailbox.bin"
		}
	]
}
