{
	"asset":{
		"generator":"Khronos glTF Blender I/O v4.4.56",
		"version":"2.0"
	},
	"scene":0,
	"scenes":[
		{
			"name":"Scene",
			"nodes":[
				1
			]
		}
	],
	"nodes":[
		{
			"mesh":0,
			"name":"DoorHandle",
			"translation":[
				0.6622969508171082,
				1.457247018814087,
				-0.04939604178071022
			]
		},
		{
			"children":[
				0
			],
			"name":"RootNode"
		}
	],
	"materials":[
		{
			"name":"Metal.001",
			"pbrMetallicRoughness":{
				"baseColorFactor":[
					0.24398985505104065,
					0.19071806967258453,
					0.06417586654424667,
					1
				],
				"metallicFactor":0.4000000059604645,
				"roughnessFactor":0.41508710384368896
			}
		},
		{
			"name":"Wood.001",
			"pbrMetallicRoughness":{
				"baseColorFactor":[
					0.0819755345582962,
					0.03277263790369034,
					0.018404053524136543,
					1
				],
				"metallicFactor":0.4000000059604645,
				"roughnessFactor":0.41508710384368896
			}
		}
	],
	"meshes":[
		{
			"name":"DoorHandle.001",
			"primitives":[
				{
					"attributes":{
						"POSITION":0,
						"NORMAL":1
					},
					"indices":2,
					"material":0
				},
				{
					"attributes":{
						"POSITION":3,
						"NORMAL":4
					},
					"indices":5,
					"material":1
				}
			]
		}
	],
	"accessors":[
		{
			"bufferView":0,
			"componentType":5126,
			"count":770,
			"max":[
				-0.9069575071334839,
				-0.17056047916412354,
				0.2153330296278
			],
			"min":[
				-1.2037737369537354,
				-0.26435720920562744,
				-0.10459892451763153
			],
			"type":"VEC3"
		},
		{
			"bufferView":1,
			"componentType":5126,
			"count":770,
			"type":"VEC3"
		},
		{
			"bufferView":2,
			"componentType":5123,
			"count":1104,
			"type":"SCALAR"
		},
		{
			"bufferView":3,
			"componentType":5126,
			"count":626,
			"max":[
				2.5928020477294922e-05,
				1.5359892845153809,
				0.11519163846969604
			],
			"min":[
				-1.3316866159439087,
				-1.4420639276504517,
				0.0001534000039100647
			],
			"type":"VEC3"
		},
		{
			"bufferView":4,
			"componentType":5126,
			"count":626,
			"type":"VEC3"
		},
		{
			"bufferView":5,
			"componentType":5123,
			"count":1092,
			"type":"SCALAR"
		}
	],
	"bufferViews":[
		{
			"buffer":0,
			"byteLength":9240,
			"byteOffset":0,
			"target":34962
		},
		{
			"buffer":0,
			"byteLength":9240,
			"byteOffset":9240,
			"target":34962
		},
		{
			"buffer":0,
			"byteLength":2208,
			"byteOffset":18480,
			"target":34963
		},
		{
			"buffer":0,
			"byteLength":7512,
			"byteOffset":20688,
			"target":34962
		},
		{
			"buffer":0,
			"byteLength":7512,
			"byteOffset":28200,
			"target":34962
		},
		{
			"buffer":0,
			"byteLength":2184,
			"byteOffset":35712,
			"target":34963
		}
	],
	"buffers":[
		{
			"byteLength":37896,
			"uri":"Door.bin"
		}
	]
}
