{
	"asset":{
		"generator":"Khronos glTF Blender I/O v4.4.56",
		"version":"2.0"
	},
	"scene":0,
	"scenes":[
		{
			"name":"Scene",
			"nodes":[
				1
			]
		}
	],
	"nodes":[
		{
			"mesh":0,
			"name":"DoorFrame"
		},
		{
			"children":[
				0
			],
			"name":"RootNode"
		}
	],
	"materials":[
		{
			"name":"Wood",
			"pbrMetallicRoughness":{
				"baseColorFactor":[
					0.0819755345582962,
					0.03277263790369034,
					0.018404053524136543,
					1
				],
				"metallicFactor":0.4000000059604645,
				"roughnessFactor":0.41508710384368896
			}
		}
	],
	"meshes":[
		{
			"name":"DoorFrame",
			"primitives":[
				{
					"attributes":{
						"POSITION":0,
						"NORMAL":1
					},
					"indices":2,
					"material":0
				}
			]
		}
	],
	"accessors":[
		{
			"bufferView":0,
			"componentType":5126,
			"count":182,
			"max":[
				0.8707743883132935,
				3.1549880504608154,
				0.1718599498271942
			],
			"min":[
				-0.8778411149978638,
				0.015182686038315296,
				-0.1553088128566742
			],
			"type":"VEC3"
		},
		{
			"bufferView":1,
			"componentType":5126,
			"count":182,
			"type":"VEC3"
		},
		{
			"bufferView":2,
			"componentType":5123,
			"count":348,
			"type":"SCALAR"
		}
	],
	"bufferViews":[
		{
			"buffer":0,
			"byteLength":2184,
			"byteOffset":0,
			"target":34962
		},
		{
			"buffer":0,
			"byteLength":2184,
			"byteOffset":2184,
			"target":34962
		},
		{
			"buffer":0,
			"byteLength":696,
			"byteOffset":4368,
			"target":34963
		}
	],
	"buffers":[
		{
			"byteLength":5064,
			"uri":"Frame.bin"
		}
	]
}
